<?xml version="1.0" standalone="no"?>
<!DOCTYPE svg PUBLIC "-//W3C//DTD SVG 20010904//EN"
 "http://www.w3.org/TR/2001/REC-SVG-20010904/DTD/svg10.dtd">
<svg version="1.0" xmlns="http://www.w3.org/2000/svg"
 width="1024.000000pt" height="1024.000000pt" viewBox="0 0 1024.000000 1024.000000"
 preserveAspectRatio="xMidYMid meet">

<g transform="translate(0.000000,1024.000000) scale(0.100000,-0.100000)"
fill="#000000" stroke="none">
<path d="M4860 8070 c-98 -9 -299 -53 -380 -82 -303 -109 -503 -238 -740 -477
-149 -150 -268 -313 -375 -516 -32 -60 -81 -148 -110 -195 -49 -80 -109 -187
-215 -380 -26 -47 -78 -141 -117 -210 -104 -186 -143 -261 -143 -272 0 -5 15
-28 34 -51 38 -48 228 -317 276 -391 8 -13 51 -74 95 -136 44 -62 114 -161
155 -221 95 -137 302 -430 421 -594 28 -38 62 -88 77 -110 14 -22 39 -57 55
-77 l29 -38 624 0 c493 0 624 3 624 13 0 6 -24 44 -53 83 -71 97 -133 181
-257 349 -58 78 -136 185 -175 238 -38 53 -153 208 -255 345 -239 321 -235
314 -275 413 -55 136 -69 212 -69 394 0 157 13 261 39 320 7 17 27 66 45 110
65 161 219 348 367 447 109 73 250 143 358 178 295 94 708 128 1212 100 441
-25 546 -31 658 -40 66 -6 230 -19 365 -30 135 -11 286 -25 335 -30 218 -24
848 -88 943 -96 l82 -7 0 482 0 481 -392 0 c-216 0 -1014 2 -1773 4 -759 3
-1418 1 -1465 -4z"/>
<path d="M5070 6172 c0 -9 55 -85 265 -367 145 -196 136 -184 241 -321 49 -65
126 -166 169 -224 43 -58 82 -107 85 -110 4 -3 38 -48 76 -100 130 -178 169
-231 221 -297 29 -36 58 -84 65 -107 9 -27 13 -111 13 -246 -1 -261 -18 -356
-99 -524 -47 -97 -106 -199 -126 -216 -3 -3 -28 -32 -55 -64 -28 -33 -86 -89
-130 -125 -379 -314 -857 -381 -2120 -296 -275 19 -760 61 -1035 90 -25 3 -90
9 -145 15 -55 5 -226 23 -380 40 -154 16 -286 30 -293 30 -10 0 -12 -101 -10
-487 l3 -488 1805 0 c2003 0 1876 -4 2110 65 305 91 610 288 840 545 25 27 51
56 59 65 28 29 178 236 207 285 16 28 40 75 54 105 13 30 42 84 64 120 21 36
57 99 79 140 22 41 70 129 107 195 37 66 100 181 140 255 40 74 95 171 120
215 26 44 57 99 69 123 l22 44 -39 51 c-22 29 -66 90 -98 137 -62 91 -171 247
-257 370 -30 41 -71 100 -93 131 -172 246 -234 333 -279 394 -28 39 -85 117
-126 175 -41 58 -94 132 -119 165 -25 33 -70 97 -100 142 l-55 83 -627 0
c-346 0 -628 -4 -628 -8z"/>
</g>
</svg>
